<svg width="18" height="18" viewBox="0 0 18 18" fill="none" xmlns="http://www.w3.org/2000/svg">
<path d="M16.8749 7.3969C16.5374 7.3969 16.228 7.67815 16.228 8.04377V13.3313C16.228 14.4282 15.4124 15.3 14.3999 15.3H3.5999C2.55928 15.3 1.77178 14.4282 1.77178 13.3313V8.01565C1.77178 7.67815 1.49053 7.36877 1.1249 7.36877C0.759277 7.36877 0.478027 7.65002 0.478027 8.01565V13.3031C0.478027 15.075 1.85615 16.5375 3.57178 16.5375H14.3999C16.1155 16.5375 17.4937 15.1031 17.4937 13.3031V8.01565C17.5218 7.67815 17.2124 7.3969 16.8749 7.3969Z" fill="#DEE4EE"/>
<path d="M8.5498 11.5875C8.6623 11.7 8.83105 11.7844 8.9998 11.7844C9.16855 11.7844 9.30918 11.7281 9.4498 11.5875L12.8811 8.1844C13.1342 7.93127 13.1342 7.53752 12.8811 7.2844C12.6279 7.03127 12.2342 7.03127 11.9811 7.2844L9.64668 9.59065V2.1094C9.64668 1.7719 9.36543 1.46252 8.9998 1.46252C8.6623 1.46252 8.35293 1.74377 8.35293 2.1094V9.6469L6.01855 7.31252C5.76543 7.0594 5.37168 7.0594 5.11855 7.31252C4.86543 7.56565 4.86543 7.9594 5.11855 8.21252L8.5498 11.5875Z" fill="#DEE4EE"/>
</svg>
