<svg width="18" height="18" viewBox="0 0 18 18" fill="none" xmlns="http://www.w3.org/2000/svg">
<path d="M1.43449 7.5093H2.27824C2.44699 7.5093 2.55949 7.3968 2.58762 7.31243L2.98137 6.32805H5.90637L6.27199 7.31243C6.32824 7.48118 6.46887 7.5093 6.58137 7.5093H7.45324C7.76262 7.48118 7.87512 7.25618 7.76262 7.03118L5.42824 1.4343C5.37199 1.26555 5.31574 1.23743 5.14699 1.23743H3.88137C3.76887 1.23743 3.60012 1.29368 3.57199 1.4343L1.15324 7.08743C1.04074 7.2843 1.20949 7.5093 1.43449 7.5093ZM4.47199 2.98118L5.31574 5.17493H3.60012L4.47199 2.98118Z" fill="#DEE4EE"/>
<path d="M10.1251 2.5031H16.8751C17.2126 2.5031 17.522 2.22185 17.522 1.85623C17.522 1.4906 17.2408 1.20935 16.8751 1.20935H10.1251C9.78765 1.20935 9.47827 1.4906 9.47827 1.85623C9.47827 2.22185 9.75952 2.5031 10.1251 2.5031Z" fill="#DEE4EE"/>
<path d="M16.8751 6.21558H10.1251C9.78765 6.21558 9.47827 6.49683 9.47827 6.86245C9.47827 7.22808 9.75952 7.50933 10.1251 7.50933H16.8751C17.2126 7.50933 17.522 7.22808 17.522 6.86245C17.522 6.49683 17.2126 6.21558 16.8751 6.21558Z" fill="#DEE4EE"/>
<path d="M16.875 11.1656H1.77187C1.43438 11.1656 1.125 11.4469 1.125 11.8125C1.125 12.1781 1.40625 12.4594 1.77187 12.4594H16.875C17.2125 12.4594 17.5219 12.1781 17.5219 11.8125C17.5219 11.4469 17.2125 11.1656 16.875 11.1656Z" fill="#DEE4EE"/>
<path d="M16.875 16.1156H1.77187C1.43438 16.1156 1.125 16.3969 1.125 16.7625C1.125 17.1281 1.40625 17.4094 1.77187 17.4094H16.875C17.2125 17.4094 17.5219 17.1281 17.5219 16.7625C17.5219 16.3969 17.2125 16.1156 16.875 16.1156Z" fill="#DEE4EE"/>
</svg>
