<svg width="132" height="23" viewBox="0 0 132 23" fill="none" xmlns="http://www.w3.org/2000/svg">
<path d="M0 4.17592H6.27733V22.1572H10.032V4.17592H16.3093V0.714586H0V4.17592Z" fill="white"/>
<path d="M20.4999 22.5386C22.7585 22.5386 24.7239 21.5119 25.3399 20.0159L25.6039 22.1572H28.7425V13.3572C28.7425 9.33858 26.3372 7.22658 22.4359 7.22658C18.5052 7.22658 15.9239 9.27992 15.9239 12.4186H18.9745C18.9745 10.8933 20.1479 10.0133 22.2599 10.0133C24.0785 10.0133 25.2519 10.8053 25.2519 12.7706V13.0932L20.9105 13.4159C17.4785 13.6799 15.5425 15.3519 15.5425 18.0212C15.5425 20.7493 17.4199 22.5386 20.4999 22.5386ZM21.6732 19.8399C20.0599 19.8399 19.1799 19.1946 19.1799 17.8746C19.1799 16.7013 20.0305 15.9679 22.2599 15.7626L25.2812 15.5279V16.2906C25.2812 18.5199 23.8732 19.8399 21.6732 19.8399Z" fill="white"/>
<path d="M34.0475 4.76258C35.2209 4.76258 36.1889 3.79458 36.1889 2.59192C36.1889 1.38925 35.2209 0.450586 34.0475 0.450586C32.8155 0.450586 31.8475 1.38925 31.8475 2.59192C31.8475 3.79458 32.8155 4.76258 34.0475 4.76258ZM32.2582 22.1572H35.8369V7.66658H32.2582V22.1572Z" fill="white"/>
<path d="M43.1422 22.1572V0.333252H39.5929V22.1572H43.1422Z" fill="white"/>
<path d="M49.2722 22.1572L51.0029 17.1999H59.0109L60.7416 22.1572H64.7016L56.9575 0.714586H53.1149L45.3709 22.1572H49.2722ZM54.5522 7.10925C54.7576 6.52258 54.9335 5.87725 55.0215 5.46659C55.0802 5.90658 55.2855 6.55192 55.4615 7.10925L57.9255 14.0319H52.1175L54.5522 7.10925Z" fill="white"/>
<path d="M72.1582 22.5386C74.3582 22.5386 76.2355 21.5706 77.1155 19.8986L77.3502 22.1572H80.6355V0.333252H77.0862V9.51458C76.1768 8.07725 74.3875 7.22658 72.3635 7.22658C67.9928 7.22658 65.3528 10.4533 65.3528 14.9706C65.3528 19.4586 67.9635 22.5386 72.1582 22.5386ZM72.9502 19.2533C70.4568 19.2533 68.9315 17.4346 68.9315 14.8533C68.9315 12.2719 70.4568 10.4239 72.9502 10.4239C75.4435 10.4239 77.0568 12.2426 77.0568 14.8533C77.0568 17.4639 75.4435 19.2533 72.9502 19.2533Z" fill="white"/>
<path d="M87.9436 22.1572V13.9439C87.9436 11.5972 89.3223 10.4826 91.0236 10.4826C92.725 10.4826 93.8103 11.5679 93.8103 13.5919V22.1572H97.389V13.9439C97.389 11.5679 98.709 10.4533 100.44 10.4533C102.141 10.4533 103.256 11.5386 103.256 13.6213V22.1572H106.805V12.6826C106.805 9.33858 104.869 7.22658 101.349 7.22658C99.149 7.22658 97.4476 8.31192 96.7143 9.98392C95.9516 8.31192 94.4263 7.22658 92.2263 7.22658C90.1436 7.22658 88.677 8.16525 87.9436 9.36792L87.6503 7.66658H84.365V22.1572H87.9436Z" fill="white"/>
<path d="M112.107 4.76258C113.281 4.76258 114.249 3.79458 114.249 2.59192C114.249 1.38925 113.281 0.450586 112.107 0.450586C110.875 0.450586 109.907 1.38925 109.907 2.59192C109.907 3.79458 110.875 4.76258 112.107 4.76258ZM110.318 22.1572H113.897V7.66658H110.318V22.1572Z" fill="white"/>
<path d="M121.173 22.1572V14.3546C121.173 12.0079 122.522 10.4826 124.722 10.4826C126.57 10.4826 127.773 11.6559 127.773 14.0906V22.1572H131.351V13.2399C131.351 9.48525 129.474 7.22658 125.837 7.22658C123.871 7.22658 122.111 8.07725 121.202 9.54392L120.909 7.66658H117.594V22.1572H121.173Z" fill="white"/>
</svg>
