<svg width="0" height="0" class="hidden">
  <symbol fill="none" xmlns="http://www.w3.org/2000/svg" viewBox="0 0 20 20" id="chevron-down">
    <path fill-rule="evenodd" clip-rule="evenodd" d="M15.5893 13.0893C15.2639 13.4147 14.7362 13.4147 14.4108 13.0893L10 8.67851L5.5893 13.0893C5.26386 13.4147 4.73622 13.4147 4.41078 13.0893C4.08535 12.7638 4.08535 12.2362 4.41078 11.9107L9.41078 6.91074C9.73622 6.5853 10.2639 6.5853 10.5893 6.91074L15.5893 11.9107C15.9147 12.2362 15.9147 12.7638 15.5893 13.0893Z" fill="#DEE4EE"></path>
  </symbol>
  <symbol fill="none" xmlns="http://www.w3.org/2000/svg" viewBox="0 0 18 18" id="grid">
    <path d="M6.10322 0.956299H2.53135C1.5751 0.956299 0.787598 1.7438 0.787598 2.70005V6.27192C0.787598 7.22817 1.5751 8.01567 2.53135 8.01567H6.10322C7.05947 8.01567 7.84697 7.22817 7.84697 6.27192V2.72817C7.8751 1.7438 7.0876 0.956299 6.10322 0.956299ZM6.60947 6.30005C6.60947 6.5813 6.38447 6.8063 6.10322 6.8063H2.53135C2.2501 6.8063 2.0251 6.5813 2.0251 6.30005V2.72817C2.0251 2.44692 2.2501 2.22192 2.53135 2.22192H6.10322C6.38447 2.22192 6.60947 2.44692 6.60947 2.72817V6.30005Z" fill="currentColor"></path>
    <path d="M15.4689 0.956299H11.8971C10.9408 0.956299 10.1533 1.7438 10.1533 2.70005V6.27192C10.1533 7.22817 10.9408 8.01567 11.8971 8.01567H15.4689C16.4252 8.01567 17.2127 7.22817 17.2127 6.27192V2.72817C17.2127 1.7438 16.4252 0.956299 15.4689 0.956299ZM15.9752 6.30005C15.9752 6.5813 15.7502 6.8063 15.4689 6.8063H11.8971C11.6158 6.8063 11.3908 6.5813 11.3908 6.30005V2.72817C11.3908 2.44692 11.6158 2.22192 11.8971 2.22192H15.4689C15.7502 2.22192 15.9752 2.44692 15.9752 2.72817V6.30005Z" fill="currentColor"></path>
    <path d="M6.10322 9.92822H2.53135C1.5751 9.92822 0.787598 10.7157 0.787598 11.672V15.2438C0.787598 16.2001 1.5751 16.9876 2.53135 16.9876H6.10322C7.05947 16.9876 7.84697 16.2001 7.84697 15.2438V11.7001C7.8751 10.7157 7.0876 9.92822 6.10322 9.92822ZM6.60947 15.272C6.60947 15.5532 6.38447 15.7782 6.10322 15.7782H2.53135C2.2501 15.7782 2.0251 15.5532 2.0251 15.272V11.7001C2.0251 11.4188 2.2501 11.1938 2.53135 11.1938H6.10322C6.38447 11.1938 6.60947 11.4188 6.60947 11.7001V15.272Z" fill="currentColor"></path>
    <path d="M15.4689 9.92822H11.8971C10.9408 9.92822 10.1533 10.7157 10.1533 11.672V15.2438C10.1533 16.2001 10.9408 16.9876 11.8971 16.9876H15.4689C16.4252 16.9876 17.2127 16.2001 17.2127 15.2438V11.7001C17.2127 10.7157 16.4252 9.92822 15.4689 9.92822ZM15.9752 15.272C15.9752 15.5532 15.7502 15.7782 15.4689 15.7782H11.8971C11.6158 15.7782 11.3908 15.5532 11.3908 15.272V11.7001C11.3908 11.4188 11.6158 11.1938 11.8971 11.1938H15.4689C15.7502 11.1938 15.9752 11.4188 15.9752 11.7001V15.272Z" fill="currentColor"></path>
  </symbol>
  <symbol fill="none" xmlns="http://www.w3.org/2000/svg" viewBox="0 0 18 18" id="calender">
    <path d="M15.7499 2.9812H14.2874V2.36245C14.2874 2.02495 14.0062 1.71558 13.6405 1.71558C13.2749 1.71558 12.9937 1.99683 12.9937 2.36245V2.9812H4.97803V2.36245C4.97803 2.02495 4.69678 1.71558 4.33115 1.71558C3.96553 1.71558 3.68428 1.99683 3.68428 2.36245V2.9812H2.2499C1.29365 2.9812 0.478027 3.7687 0.478027 4.75308V14.5406C0.478027 15.4968 1.26553 16.3125 2.2499 16.3125H15.7499C16.7062 16.3125 17.5218 15.525 17.5218 14.5406V4.72495C17.5218 3.7687 16.7062 2.9812 15.7499 2.9812ZM1.77178 8.21245H4.1624V10.9968H1.77178V8.21245ZM5.42803 8.21245H8.38115V10.9968H5.42803V8.21245ZM8.38115 12.2625V15.0187H5.42803V12.2625H8.38115ZM9.64678 12.2625H12.5999V15.0187H9.64678V12.2625ZM9.64678 10.9968V8.21245H12.5999V10.9968H9.64678ZM13.8374 8.21245H16.228V10.9968H13.8374V8.21245ZM2.2499 4.24683H3.7124V4.83745C3.7124 5.17495 3.99365 5.48433 4.35928 5.48433C4.7249 5.48433 5.00615 5.20308 5.00615 4.83745V4.24683H13.0499V4.83745C13.0499 5.17495 13.3312 5.48433 13.6968 5.48433C14.0624 5.48433 14.3437 5.20308 14.3437 4.83745V4.24683H15.7499C16.0312 4.24683 16.2562 4.47183 16.2562 4.75308V6.94683H1.77178V4.75308C1.77178 4.47183 1.96865 4.24683 2.2499 4.24683ZM1.77178 14.5125V12.2343H4.1624V14.9906H2.2499C1.96865 15.0187 1.77178 14.7937 1.77178 14.5125ZM15.7499 15.0187H13.8374V12.2625H16.228V14.5406C16.2562 14.7937 16.0312 15.0187 15.7499 15.0187Z" fill="currentColor"></path>
  </symbol>
  <symbol fill="none" xmlns="http://www.w3.org/2000/svg" viewBox="0 0 18 18" id="user">
    <path d="M8.99995 7.79065C11.0812 7.79065 12.7687 6.1594 12.7687 4.1344C12.7687 2.1094 11.0812 0.478149 8.99995 0.478149C6.9187 0.478149 5.2312 2.1094 5.2312 4.1344C5.2312 6.1594 6.9187 7.79065 8.99995 7.79065ZM8.99995 1.7719C10.3781 1.7719 11.5031 2.84065 11.5031 4.16252C11.5031 5.4844 10.3781 6.55315 8.99995 6.55315C7.62183 6.55315 6.49683 5.4844 6.49683 4.16252C6.49683 2.84065 7.62183 1.7719 8.99995 1.7719Z" fill="currentColor"></path>
    <path d="M10.8281 9.05627H7.17183C4.16245 9.05627 1.71558 11.5313 1.71558 14.5406V16.875C1.71558 17.2125 1.99683 17.5219 2.36245 17.5219C2.72808 17.5219 3.00933 17.2407 3.00933 16.875V14.5406C3.00933 12.2344 4.8937 10.3219 7.22808 10.3219H10.8562C13.1624 10.3219 15.075 12.2063 15.075 14.5406V16.875C15.075 17.2125 15.3562 17.5219 15.7218 17.5219C16.0875 17.5219 16.3687 17.2407 16.3687 16.875V14.5406C16.2843 11.5313 13.8375 9.05627 10.8281 9.05627Z" fill="currentColor"></path>
  </symbol>
  <symbol fill="none" xmlns="http://www.w3.org/2000/svg" viewBox="0 0 18 18" id="list">
    <g clip-path="url(#clip0_926_1208)">
      <path d="M3.45928 0.984375H1.6874C1.04053 0.984375 0.478027 1.51875 0.478027 2.19375V3.96563C0.478027 4.6125 1.0124 5.175 1.6874 5.175H3.45928C4.10615 5.175 4.66865 4.64063 4.66865 3.96563V2.16562C4.64053 1.51875 4.10615 0.984375 3.45928 0.984375ZM3.3749 3.88125H1.77178V2.25H3.3749V3.88125Z" fill="currentColor"></path>
      <path d="M7.22793 3.71245H16.8748C17.2123 3.71245 17.5217 3.4312 17.5217 3.06558C17.5217 2.69995 17.2404 2.4187 16.8748 2.4187H7.22793C6.89043 2.4187 6.58105 2.69995 6.58105 3.06558C6.58105 3.4312 6.89043 3.71245 7.22793 3.71245Z" fill="currentColor"></path>
      <path d="M3.45928 6.75H1.6874C1.04053 6.75 0.478027 7.28437 0.478027 7.95937V9.73125C0.478027 10.3781 1.0124 10.9406 1.6874 10.9406H3.45928C4.10615 10.9406 4.66865 10.4062 4.66865 9.73125V7.95937C4.64053 7.28437 4.10615 6.75 3.45928 6.75ZM3.3749 9.64687H1.77178V8.01562H3.3749V9.64687Z" fill="currentColor"></path>
      <path d="M16.8748 8.21252H7.22793C6.89043 8.21252 6.58105 8.49377 6.58105 8.8594C6.58105 9.22502 6.86231 9.47815 7.22793 9.47815H16.8748C17.2123 9.47815 17.5217 9.1969 17.5217 8.8594C17.5217 8.5219 17.2123 8.21252 16.8748 8.21252Z" fill="currentColor"></path>
      <path d="M3.45928 12.8531H1.6874C1.04053 12.8531 0.478027 13.3875 0.478027 14.0625V15.8344C0.478027 16.4813 1.0124 17.0438 1.6874 17.0438H3.45928C4.10615 17.0438 4.66865 16.5094 4.66865 15.8344V14.0625C4.64053 13.3875 4.10615 12.8531 3.45928 12.8531ZM3.3749 15.75H1.77178V14.1188H3.3749V15.75Z" fill="currentColor"></path>
      <path d="M16.8748 14.2875H7.22793C6.89043 14.2875 6.58105 14.5687 6.58105 14.9344C6.58105 15.3 6.86231 15.5812 7.22793 15.5812H16.8748C17.2123 15.5812 17.5217 15.3 17.5217 14.9344C17.5217 14.5687 17.2123 14.2875 16.8748 14.2875Z" fill="currentColor"></path>
    </g>
    <defs>
      <clipPath id="clip0_926_1208">
        <rect width="18" height="18" fill="white"></rect>
      </clipPath>
    </defs>
  </symbol>
  <symbol fill="none" xmlns="http://www.w3.org/2000/svg" viewBox="0 0 18 18" id="letter">
    <path d="M1.43449 7.5093H2.27824C2.44699 7.5093 2.55949 7.3968 2.58762 7.31243L2.98137 6.32805H5.90637L6.27199 7.31243C6.32824 7.48118 6.46887 7.5093 6.58137 7.5093H7.45324C7.76262 7.48118 7.87512 7.25618 7.76262 7.03118L5.42824 1.4343C5.37199 1.26555 5.31574 1.23743 5.14699 1.23743H3.88137C3.76887 1.23743 3.60012 1.29368 3.57199 1.4343L1.15324 7.08743C1.04074 7.2843 1.20949 7.5093 1.43449 7.5093ZM4.47199 2.98118L5.31574 5.17493H3.60012L4.47199 2.98118Z" fill="currentColor"></path>
    <path d="M10.1251 2.5031H16.8751C17.2126 2.5031 17.522 2.22185 17.522 1.85623C17.522 1.4906 17.2408 1.20935 16.8751 1.20935H10.1251C9.78765 1.20935 9.47827 1.4906 9.47827 1.85623C9.47827 2.22185 9.75952 2.5031 10.1251 2.5031Z" fill="currentColor"></path>
    <path d="M16.8751 6.21558H10.1251C9.78765 6.21558 9.47827 6.49683 9.47827 6.86245C9.47827 7.22808 9.75952 7.50933 10.1251 7.50933H16.8751C17.2126 7.50933 17.522 7.22808 17.522 6.86245C17.522 6.49683 17.2126 6.21558 16.8751 6.21558Z" fill="currentColor"></path>
    <path d="M16.875 11.1656H1.77187C1.43438 11.1656 1.125 11.4469 1.125 11.8125C1.125 12.1781 1.40625 12.4594 1.77187 12.4594H16.875C17.2125 12.4594 17.5219 12.1781 17.5219 11.8125C17.5219 11.4469 17.2125 11.1656 16.875 11.1656Z" fill="currentColor"></path>
    <path d="M16.875 16.1156H1.77187C1.43438 16.1156 1.125 16.3969 1.125 16.7625C1.125 17.1281 1.40625 17.4094 1.77187 17.4094H16.875C17.2125 17.4094 17.5219 17.1281 17.5219 16.7625C17.5219 16.3969 17.2125 16.1156 16.875 16.1156Z" fill="currentColor"></path>
  </symbol>
  <symbol fill="none" xmlns="http://www.w3.org/2000/svg" viewBox="0 0 18 18" id="table">
    <g clip-path="url(#clip0_926_1244)">
      <path d="M15.7501 0.506226H2.2501C1.29385 0.506226 0.506348 1.29373 0.506348 2.24998V15.75C0.506348 16.7062 1.29385 17.5219 2.27822 17.5219H15.7782C16.7345 17.5219 17.5501 16.7344 17.5501 15.75V2.24998C17.522 1.29373 16.7063 0.506226 15.7501 0.506226ZM6.69385 10.5469V6.41248H11.3063V10.5187H6.69385V10.5469ZM11.3063 11.8125V16.2562H6.69385V11.8125H11.3063ZM1.77197 6.41248H5.45635V10.5187H1.77197V6.41248ZM12.572 6.41248H16.2563V10.5187H12.572V6.41248ZM2.2501 1.77185H15.7501C16.0313 1.77185 16.2563 1.99685 16.2563 2.2781V5.17498H1.77197V2.24998C1.77197 1.96873 1.96885 1.77185 2.2501 1.77185ZM1.77197 15.75V11.8125H5.45635V16.2562H2.2501C1.96885 16.2562 1.77197 16.0312 1.77197 15.75ZM15.7501 16.2562H12.572V11.8125H16.2563V15.75C16.2563 16.0312 16.0313 16.2562 15.7501 16.2562Z" fill="currentColor"></path>
    </g>
    <defs>
      <clipPath id="clip0_926_1244">
        <rect width="18" height="18" fill="white"></rect>
      </clipPath>
    </defs>
  </symbol>
  <symbol fill="none" xmlns="http://www.w3.org/2000/svg" viewBox="0 0 18 18" id="page">
    <path d="M14.2875 0.506226H3.7125C2.75625 0.506226 1.96875 1.29373 1.96875 2.24998V15.75C1.96875 16.7062 2.75625 17.5219 3.74063 17.5219H14.3156C15.2719 17.5219 16.0875 16.7344 16.0875 15.75V2.24998C16.0313 1.29373 15.2438 0.506226 14.2875 0.506226ZM14.7656 15.75C14.7656 16.0312 14.5406 16.2562 14.2594 16.2562H3.7125C3.43125 16.2562 3.20625 16.0312 3.20625 15.75V2.24998C3.20625 1.96873 3.43125 1.74373 3.7125 1.74373H14.2875C14.5688 1.74373 14.7938 1.96873 14.7938 2.24998V15.75H14.7656Z" fill="currentColor"></path>
    <path d="M12.797 2.6156H9.73135C9.2251 2.6156 8.80322 3.03748 8.80322 3.54373V7.25623C8.80322 7.76248 9.2251 8.18435 9.73135 8.18435H12.797C13.3032 8.18435 13.7251 7.76248 13.7251 7.25623V3.5156C13.697 3.03748 13.3032 2.6156 12.797 2.6156ZM12.4313 6.8906H10.0688V3.88123H12.4313V6.8906Z" fill="currentColor"></path>
    <path d="M4.97822 4.35938H7.03135C7.36885 4.35938 7.67822 4.07812 7.67822 3.7125C7.67822 3.34687 7.39697 3.09375 7.03135 3.09375H4.9501C4.6126 3.09375 4.30322 3.375 4.30322 3.74063C4.30322 4.10625 4.6126 4.35938 4.97822 4.35938Z" fill="currentColor"></path>
    <path d="M4.97822 7.9312H7.03135C7.36885 7.9312 7.67822 7.64995 7.67822 7.28433C7.67822 6.9187 7.39697 6.63745 7.03135 6.63745H4.9501C4.6126 6.63745 4.30322 6.9187 4.30322 7.28433C4.30322 7.64995 4.6126 7.9312 4.97822 7.9312Z" fill="currentColor"></path>
    <path d="M13.0782 10.2374H4.97817C4.64067 10.2374 4.3313 10.5187 4.3313 10.8843C4.3313 11.2499 4.61255 11.5312 4.97817 11.5312H13.0782C13.4157 11.5312 13.725 11.2499 13.725 10.8843C13.725 10.5187 13.4157 10.2374 13.0782 10.2374Z" fill="currentColor"></path>
    <path d="M13.0782 13.8093H4.97817C4.64067 13.8093 4.3313 14.0906 4.3313 14.4562C4.3313 14.8218 4.61255 15.1031 4.97817 15.1031H13.0782C13.4157 15.1031 13.725 14.8218 13.725 14.4562C13.725 14.0906 13.4157 13.8093 13.0782 13.8093Z" fill="currentColor"></path>
  </symbol>
  <symbol fill="none" xmlns="http://www.w3.org/2000/svg" viewBox="0 0 18 18" id="envelope">
    <path d="M15.7499 2.69995H2.2499C1.29365 2.69995 0.478027 3.48745 0.478027 4.47183V13.5843C0.478027 14.5406 1.26553 15.3562 2.2499 15.3562H15.7499C16.7062 15.3562 17.5218 14.5687 17.5218 13.5843V4.4437C17.5218 3.48745 16.7062 2.69995 15.7499 2.69995ZM15.7499 3.96558C15.778 3.96558 15.8062 3.96558 15.8343 3.96558L8.9999 8.35308L2.16553 3.96558C2.19365 3.96558 2.22178 3.96558 2.2499 3.96558H15.7499ZM15.7499 14.0343H2.2499C1.96865 14.0343 1.74365 13.8093 1.74365 13.5281V5.20308L8.3249 9.42183C8.52178 9.56245 8.74678 9.6187 8.97178 9.6187C9.19678 9.6187 9.42178 9.56245 9.61865 9.42183L16.1999 5.20308V13.5562C16.2562 13.8375 16.0312 14.0343 15.7499 14.0343Z" fill="currentColor"></path>
  </symbol>
  <symbol fill="none" xmlns="http://www.w3.org/2000/svg" viewBox="0 0 18 18" id="inbox">
    <path d="M16.8749 7.3969C16.5374 7.3969 16.228 7.67815 16.228 8.04377V13.3313C16.228 14.4282 15.4124 15.3 14.3999 15.3H3.5999C2.55928 15.3 1.77178 14.4282 1.77178 13.3313V8.01565C1.77178 7.67815 1.49053 7.36877 1.1249 7.36877C0.759277 7.36877 0.478027 7.65002 0.478027 8.01565V13.3031C0.478027 15.075 1.85615 16.5375 3.57178 16.5375H14.3999C16.1155 16.5375 17.4937 15.1031 17.4937 13.3031V8.01565C17.5218 7.67815 17.2124 7.3969 16.8749 7.3969Z" fill="currentColor"></path>
    <path d="M8.5498 11.5875C8.6623 11.7 8.83105 11.7844 8.9998 11.7844C9.16855 11.7844 9.30918 11.7281 9.4498 11.5875L12.8811 8.1844C13.1342 7.93127 13.1342 7.53752 12.8811 7.2844C12.6279 7.03127 12.2342 7.03127 11.9811 7.2844L9.64668 9.59065V2.1094C9.64668 1.7719 9.36543 1.46252 8.9998 1.46252C8.6623 1.46252 8.35293 1.74377 8.35293 2.1094V9.6469L6.01855 7.31252C5.76543 7.0594 5.37168 7.0594 5.11855 7.31252C4.86543 7.56565 4.86543 7.9594 5.11855 8.21252L8.5498 11.5875Z" fill="currentColor"></path>
  </symbol>
  <symbol fill="none" xmlns="http://www.w3.org/2000/svg" viewBox="0 0 18 18" id="invoice">
    <path d="M15.8343 2.4469C15.8343 1.37815 14.9624 0.478149 13.8655 0.478149H4.13428C3.06553 0.478149 2.16553 1.35002 2.16553 2.4469V16.5656C2.16553 16.7906 2.30615 17.0156 2.50303 17.1281C2.6999 17.2407 2.95303 17.2125 3.1499 17.1L4.55615 16.1719L6.44053 17.4094C6.66553 17.55 6.91865 17.55 7.14365 17.4094L8.9999 16.1719L10.8562 17.4094C10.9687 17.4938 11.0812 17.5219 11.1937 17.5219C11.3062 17.5219 11.4468 17.4938 11.5312 17.4094L13.3874 16.1719L14.7937 17.1281C14.9905 17.2688 15.2437 17.2688 15.4405 17.1563C15.6374 17.0438 15.778 16.8188 15.778 16.5938L15.8343 2.4469ZM14.0343 15.0469C13.6687 14.7938 13.1905 14.7938 12.8249 15.0469L11.2218 16.1156L9.61865 15.0469C9.42178 14.9344 9.2249 14.85 8.9999 14.85C8.80303 14.85 8.57803 14.9063 8.40928 15.0469L6.80615 16.1156L5.20303 15.0469C4.8374 14.7938 4.35928 14.7938 3.99365 15.0469L3.45928 15.3844V2.4469C3.45928 2.05315 3.76865 1.74377 4.1624 1.74377H13.9218C14.3155 1.74377 14.6249 2.05315 14.6249 2.4469V15.3844L14.0343 15.0469Z" fill="currentColor"></path>
    <path d="M7.93106 3.7406H5.5123C5.1748 3.7406 4.89355 4.02185 4.89355 4.35935C4.89355 4.69685 5.1748 4.9781 5.5123 4.9781H7.93106C8.26856 4.9781 8.54981 4.69685 8.54981 4.35935C8.54981 4.02185 8.26856 3.7406 7.93106 3.7406Z" fill="currentColor"></path>
    <path d="M12.3467 3.7406H11.6717C11.3342 3.7406 11.053 4.02185 11.053 4.35935C11.053 4.69685 11.3342 4.9781 11.6717 4.9781H12.3467C12.6842 4.9781 12.9655 4.69685 12.9655 4.35935C12.9655 4.02185 12.6842 3.7406 12.3467 3.7406Z" fill="currentColor"></path>
    <path d="M5.5123 8.69062H7.05918C7.39668 8.69062 7.67793 8.40938 7.67793 8.07188C7.67793 7.73438 7.39668 7.45312 7.05918 7.45312H5.5123C5.1748 7.45312 4.89355 7.73438 4.89355 8.07188C4.89355 8.40938 5.14668 8.69062 5.5123 8.69062Z" fill="currentColor"></path>
    <path d="M12.3467 7.42505H11.6717C11.3342 7.42505 11.053 7.7063 11.053 8.0438C11.053 8.3813 11.3342 8.66255 11.6717 8.66255H12.3467C12.6842 8.66255 12.9655 8.3813 12.9655 8.0438C12.9655 7.7063 12.6842 7.42505 12.3467 7.42505Z" fill="currentColor"></path>
    <path d="M7.93106 11.0813H5.5123C5.1748 11.0813 4.89355 11.3625 4.89355 11.7C4.89355 12.0375 5.1748 12.3188 5.5123 12.3188H7.93106C8.26856 12.3188 8.54981 12.0375 8.54981 11.7C8.54981 11.3625 8.26856 11.0813 7.93106 11.0813Z" fill="currentColor"></path>
    <path d="M12.3467 11.0813H11.6717C11.3342 11.0813 11.053 11.3625 11.053 11.7C11.053 12.0375 11.3342 12.3188 11.6717 12.3188H12.3467C12.6842 12.3188 12.9655 12.0375 12.9655 11.7C12.9655 11.3625 12.6842 11.0813 12.3467 11.0813Z" fill="currentColor"></path>
  </symbol>
  <symbol fill="none" xmlns="http://www.w3.org/2000/svg" viewBox="0 0 18 18" id="chart">
    <g clip-path="url(#clip0_926_1292)">
      <path d="M10.8563 0.506226C10.5188 0.506226 10.2095 0.787476 10.2095 1.1531V6.7781C10.2095 7.1156 10.4907 7.42498 10.8563 7.42498H16.8751C17.0438 7.42498 17.2126 7.3406 17.3251 7.2281C17.4376 7.08748 17.4938 6.91873 17.4938 6.74998C17.2688 3.23435 14.3438 0.506226 10.8563 0.506226ZM11.4751 6.1031V1.79998C13.8095 2.08123 15.6938 3.82498 16.1438 6.13123H11.4751V6.1031Z" fill="currentColor"></path>
      <path d="M15.3845 8.69057H9.1126V2.6437C9.1126 2.3062 8.83135 2.02495 8.49385 2.02495C8.40947 2.02495 8.3251 2.02495 8.24072 2.02495C3.96572 1.99682 0.506348 5.48432 0.506348 9.75932C0.506348 14.0343 3.99385 17.5218 8.26885 17.5218C12.5438 17.5218 16.0313 14.0343 16.0313 9.75932C16.0313 9.59057 16.0313 9.42182 16.0032 9.2812C16.0032 8.9437 15.722 8.69057 15.3845 8.69057ZM8.26885 16.2562C4.66885 16.2562 1.77197 13.3593 1.77197 9.75932C1.77197 6.32807 4.47197 3.48745 7.8751 3.29057V9.30932C7.8751 9.64682 8.15635 9.9562 8.52197 9.9562H14.7938C14.6813 13.4437 11.7845 16.2562 8.26885 16.2562Z" fill="currentColor"></path>
    </g>
    <defs>
      <clipPath id="clip0_926_1292">
        <rect width="18" height="18" fill="white"></rect>
      </clipPath>
    </defs>
  </symbol>
  <symbol fill="none" xmlns="http://www.w3.org/2000/svg" viewBox="0 0 18 18" id="layout">
    <g clip-path="url(#clip0_926_1299)">
      <path d="M15.7501 0.506226H2.2501C1.29385 0.506226 0.506348 1.29373 0.506348 2.24998V7.48123C0.506348 8.43748 1.29385 9.22498 2.2501 9.22498H15.7501C16.7063 9.22498 17.4938 8.43748 17.4938 7.48123V2.24998C17.4938 1.29373 16.7063 0.506226 15.7501 0.506226ZM16.2563 7.48123C16.2563 7.76248 16.0313 7.98748 15.7501 7.98748H2.2501C1.96885 7.98748 1.74385 7.76248 1.74385 7.48123V2.24998C1.74385 1.96873 1.96885 1.74373 2.2501 1.74373H15.7501C16.0313 1.74373 16.2563 1.96873 16.2563 2.24998V7.48123Z" fill="currentColor"></path>
      <path d="M6.13135 10.9125H2.2501C1.29385 10.9125 0.506348 11.7 0.506348 12.6562V15.75C0.506348 16.7062 1.29385 17.4937 2.2501 17.4937H6.13135C7.0876 17.4937 7.8751 16.7062 7.8751 15.75V12.6562C7.90322 11.7 7.11572 10.9125 6.13135 10.9125ZM6.6376 15.75C6.6376 16.0312 6.4126 16.2562 6.13135 16.2562H2.2501C1.96885 16.2562 1.74385 16.0312 1.74385 15.75V12.6562C1.74385 12.375 1.96885 12.15 2.2501 12.15H6.13135C6.4126 12.15 6.6376 12.375 6.6376 12.6562V15.75Z" fill="currentColor"></path>
      <path d="M15.75 10.9125H11.8688C10.9125 10.9125 10.125 11.7 10.125 12.6562V15.75C10.125 16.7062 10.9125 17.4937 11.8688 17.4937H15.75C16.7063 17.4937 17.4938 16.7062 17.4938 15.75V12.6562C17.4938 11.7 16.7063 10.9125 15.75 10.9125ZM16.2562 15.75C16.2562 16.0312 16.0312 16.2562 15.75 16.2562H11.8688C11.5875 16.2562 11.3625 16.0312 11.3625 15.75V12.6562C11.3625 12.375 11.5875 12.15 11.8688 12.15H15.75C16.0312 12.15 16.2562 12.375 16.2562 12.6562V15.75Z" fill="currentColor"></path>
    </g>
    <defs>
      <clipPath id="clip0_926_1299">
        <rect width="18" height="18" fill="white"></rect>
      </clipPath>
    </defs>
  </symbol>
  <symbol fill="none" xmlns="http://www.w3.org/2000/svg" viewBox="0 0 18 19" id="enter">
    <g clip-path="url(#clip0_804_70153)">
      <path d="M12.7125 1.08923H9.53433C8.80308 1.08923 8.18433 1.70798 8.18433 2.43923V4.37986C8.18433 4.71736 8.46558 4.99861 8.80308 4.99861C9.14058 4.99861 9.44995 4.71736 9.44995 4.37986V2.41111C9.44995 2.35486 9.47808 2.32673 9.53433 2.32673H12.7125C13.3875 2.32673 13.9218 2.86111 13.9218 3.53611V15.6017C13.9218 16.2767 13.3875 16.8111 12.7125 16.8111H9.53433C9.47808 16.8111 9.44995 16.783 9.44995 16.7267V14.7861C9.44995 14.4486 9.1687 14.1674 8.80308 14.1674C8.43745 14.1674 8.18433 14.4486 8.18433 14.7861V16.7267C8.18433 17.458 8.80308 18.0767 9.53433 18.0767H12.7125C14.0906 18.0767 15.1875 16.9517 15.1875 15.6017V3.56423C15.1875 2.18611 14.0625 1.08923 12.7125 1.08923Z" fill="currentColor"></path>
      <path d="M10.4343 9.13293L7.62183 6.26418C7.3687 6.01106 6.97495 6.01106 6.72183 6.26418C6.4687 6.51731 6.4687 6.91106 6.72183 7.16418L8.46558 8.93606H3.45933C3.12183 8.93606 2.84058 9.21731 2.84058 9.55481C2.84058 9.89231 3.12183 10.1736 3.45933 10.1736H8.4937L6.72183 11.9736C6.4687 12.2267 6.4687 12.6204 6.72183 12.8736C6.83433 12.9861 7.00308 13.0423 7.17183 13.0423C7.34058 13.0423 7.50933 12.9861 7.62183 12.8454L10.4343 9.97668C10.6875 9.77981 10.6875 9.38606 10.4343 9.13293Z" fill="currentColor"></path>
    </g>
    <defs>
      <clipPath id="clip0_804_70153">
        <rect width="18" height="18" fill="white" transform="translate(0 0.583008)"></rect>
      </clipPath>
    </defs>
  </symbol>
</svg>